<?xml version="1.0" encoding="UTF-8"?>
<svg id="Capa_1" data-name="Capa 1" xmlns="http://www.w3.org/2000/svg" viewBox="0 0 183.57 91.54">
  <path d="M67.24,65.95l1.14,5.01c-.75.44-2.48-3.62-2.97-4.21-2.73-3.25-6.56-3.13-10.45-3.34,2.51-1.68,7.04-1.65,9.87-.82,4.2,1.24,4.71,1.62,9.26,2.25,6.87.96,8.43,8.16,17.22,7.85,6-.21,8.87-7.07,4.9-11.58-1.98-2.24-7.01-3.7-9.95-4.22-2.04-.37-4.62.17-6.69-.36-1.82-.47-3.07-1.69-5.08-1.99-1.55-.23-3.86.51-5.42.42-5.5-.32-10.3-2.5-15.98-1.92-11.32,1.16-12.84,9.19-3.23,14.98,9.92,5.98,35.29,14.86,46.7,15.69,15.17,1.11,30.25-6.36,44.93-3.39,11.29,2.29,22.63,7.6,33.57,11.21,2.64-.11,6.87-14.59,7.48-17.32.49-2.19,2.28-10.82-.46-11.78-9.3-.47-18.42-1.88-27.53-3.87-5.46-1.38-15.89-4.38-20.03-7.99-3.67-3.2-4.33-10.64-6.37-15.06-2.7-5.87-8.11-9.92-10.71-15.09-2.41-4.81-1.28-12.18-6.31-15.49-4.7-3.09-13.68-.66-19.69-1.78-3.61-.67-7.98-2.87-11.41-3.15-2.4-.19-10.48,3.64-13.62,4.58-4.22,1.26-11.02.74-9.62,8,.99,5.14,7.51,7.14,12.12,6.84,6.78-.45,11.9-5.76,18.14-5.89,1.76-.04,7.2.12,7.57,2.07-.46,4.35.42,8.63,1.88,12.68l4.24,8.35c-4.51-3.56-7.36-9.32-9.09-14.66-3.17-.06-6.35-.44-9.52-.5-12.41-.24-12.81.78-25-4.25-8.31-3.43-11.95-2.19-19.75-3.78C27.36,11.41,20.28,4.05,10.47,2.61,1.57,1.29-5.22,13.55,5.45,17.79c9.26,3.68,20.02,3.34,29.52,5.93,5.23,1.43,8.43,5.12,12.75,6.37,4.04,1.18,9.57.19,14.15,1.44,5.86,1.59,7.8,1.47,13.37,2.36,4.02.64,8.02,2.7,12,3.49,4.21.83,8.75.15,12.97,1.76s8.43,4.78,9,9.57c.85,7.14-3.65,10.47-9.8,12.33,4.24,11.8-6.56,16.66-16.53,11.82-2.56-1.25-5.15-4.65-7.03-5.45-2.35-1-6.11.05-8.63-1.48Z"/>
  <path d="M47.16,44.3c3.58,6.83,16.57,7.95,23.31,8.79,1.11-.45.21-1.06-.32-1.45-2.86-2.06-7.55-3.9-11.05-4.22.13-1.15.37-.91,1.29-.92,6.4-.04,10.31,4.24,16.55,4.4,1.61.04,4.08-.78,5.47-.37,4.38,1.29,5.91,6.47,13.81,7.56,9.69,1.34,14.25-9.67,6.32-14.96-5.23-3.49-11.97-2.17-17.42-3.71-1.38-.39-2.4-1.29-3.66-1.65-7.1-2.06-24.05-4.11-30.76-.86-2.89,1.4-5.26,4.08-3.53,7.39Z"/>
  <path d="M85.15,54.5c-2.26-1.2-5.5-2.81-7.96-1.28,2.41.85,5.4,2.84,7.96,1.28Z"/>
</svg>